<svg height='100px' width='100px'  fill="#000000" xmlns="http://www.w3.org/2000/svg" viewBox="0 0 87.999977 84.000024" x="0px" y="0px"><path d="m287.7 545.93c-4.116-.029-8.325.983-12.05 3.423l-.001.001-.001.001c-6.238 4.193-9.741 9.988-10.66 16.486-.919 6.498.634 13.623 4 20.904 6.731 14.563 20.769 29.912 38.594 42.36l1.144.803 1.145-.803c17.825-12.451 31.865-27.8 38.596-42.36 3.366-7.281 4.919-14.406 4-20.904-.919-6.498-4.423-12.293-10.66-16.486l-.001-.001-.001-.001c-3.722-2.441-7.932-3.453-12.05-3.423-5.26.038-10.39 1.73-14.522 4.359-2.69 1.712-4.914 3.856-6.49 6.261-1.576-2.405-3.8-4.549-6.49-6.261-4.131-2.629-9.26-4.321-14.52-4.359zm-.025 4c4.407.032 8.889 1.5 12.402 3.736 3.514 2.235 5.983 5.229 6.701 7.97l1.936 7.382 1.934-7.382c.718-2.741 3.188-5.735 6.701-7.97 3.514-2.235 7.996-3.704 12.402-3.736 3.448-.025 6.833.809 9.826 2.771 5.413 3.646 8.14 8.251 8.912 13.712.773 5.467-.527 11.867-3.67 18.666-6.139 13.282-19.324 27.892-36.11 39.867-16.784-11.975-29.971-26.585-36.11-39.867-3.143-6.799-4.443-13.199-3.67-18.666.772-5.461 3.501-10.07 8.914-13.712 2.993-1.962 6.378-2.796 9.826-2.771zm.043 4.607c-2.113.059-4.5.625-6.758 1.875-4.515 2.5-8.279 8.06-7.01 16.633l3.955-.588c-1.083-7.292 1.701-10.726 4.988-12.545 1.644-.91 3.471-1.336 4.932-1.377 1.461-.041 2.492.513 2.41.426l2.906-2.748c-1.415-1.495-3.315-1.735-5.428-1.676" shape-rendering="auto" mix-blend-mode="normal" color-interpolation-filters="linearRGB" isolation="auto" white-space="normal" solid-opacity="1" image-rendering="auto" solid-color="#000000" color="#000" fill-rule="evenodd" color-rendering="auto" color-interpolation="sRGB" transform="translate(-264.71-545.92)"></path></svg>