<svg height='100px' width='100px'  fill="#000000" xmlns="http://www.w3.org/2000/svg" viewBox="0 0 88.000023 84.000032" x="0px" y="0px"><path d="m286.24 542.31c-3.963-.029-7.943.944-11.461 3.269-24.438 16.56-3.376 54.777 33.488 80.73 36.864-25.953 57.926-64.17 33.488-80.73-3.518-2.325-7.498-3.298-11.461-3.269-10.127.073-20.14 6.68-22.03 13.937-1.887-7.257-11.9-13.864-22.03-13.937m.938 7.35c2.331-.025 4.588.344 6.305 2.262l-4.471 4c.248.277-.498-.277-1.77-.264-1.271.014-2.924.395-4.387 1.229-2.926 1.666-5.452 4.71-4.402 11.758l-5.934.885c-1.331-8.933 2.552-15.11 7.367-17.855 2.408-1.371 4.96-1.99 7.291-2.02" fill-rule="evenodd" transform="translate(-264.26-542.31)"></path></svg>